<svg version="1.2" xmlns="http://www.w3.org/2000/svg" viewBox="0 0 3000 3000" width="3000" height="3000">
	<style>
		.s0 { opacity: .93;fill: #1b2842 } 
	</style>
	<path id="Path 0" fill-rule="evenodd" class="s0" d="m1328.5 607.47c280.24 0.18 299.41 0.3 305.5 1.93 3.58 0.95 13.25 3.07 21.5 4.71 8.25 1.63 18.15 3.89 22 5.01 3.85 1.13 12.85 3.88 20 6.12 7.15 2.24 17.05 5.76 22 7.82 4.95 2.06 14.4 6.26 21 9.32 6.6 3.07 16.19 7.95 21.31 10.85 5.13 2.9 16.15 9.78 24.5 15.28 8.36 5.51 17.22 11.58 19.69 13.5 2.47 1.91 10.35 8.48 17.5 14.59 7.15 6.11 16.85 15.34 21.55 20.5 4.71 5.17 11.26 12.77 14.56 16.9 3.3 4.12 9.16 12.22 13.01 18 3.86 5.77 9.3 14.55 12.09 19.5 2.79 4.95 6.96 12.6 9.27 17 2.3 4.4 6.01 12.27 8.24 17.5 2.23 5.22 4.92 11.97 5.98 15 1.06 3.02 3 10.22 4.31 16 1.32 5.77 3.56 15.45 4.97 21.5 1.42 6.05 3.03 13.25 3.58 16 0.56 2.75 1.42 12.87 1.92 22.5 0.54 10.44 0.55 25.17 0.02 36.5-0.57 12.05-1.68 22.84-3.03 29.5-1.17 5.77-3.95 17.47-6.17 26-2.23 8.52-5.89 20.22-8.13 26-2.25 5.77-6.17 14.55-8.71 19.5-2.55 4.95-7.15 13.05-10.22 18-3.08 4.95-9.38 13.5-14.02 19-4.63 5.5-13.78 15.18-20.32 21.51-6.55 6.33-15.8 14.43-20.56 18-4.76 3.57-13.99 9.28-20.5 12.68-6.51 3.41-19.49 9.1-28.84 12.65-9.35 3.56-19.7 7.17-23 8.02-3.3 0.85-11.17 2.46-17.5 3.58-6.33 1.12-17.58 2.5-25 3.06-7.42 0.57-26.33 1.7-42 2.51-15.67 0.8-30.64 1.47-33.25 1.48-2.61 0-4.76 0.35-4.78 0.76-0.02 0.41 4.37 3.2 9.75 6.19 5.38 2.99 15.95 9.06 23.49 13.5 7.55 4.43 17.64 10.31 22.42 13.06 4.79 2.75 16.84 10.41 26.79 17.02 9.94 6.61 22.36 15.22 27.58 19.13 5.22 3.9 12.88 9.72 17 12.91 4.13 3.2 11.1 8.75 15.5 12.35 4.4 3.59 14.97 12.9 23.5 20.68 8.53 7.79 22.25 21.08 30.5 29.54 8.25 8.45 19.05 20.07 24 25.82 4.95 5.74 11.38 13.39 14.29 16.99 2.91 3.61 9.21 11.75 14 18.09 4.79 6.34 12.57 17.36 17.28 24.5 4.72 7.13 10.86 16.8 13.65 21.47 2.8 4.67 7.88 14.8 11.3 22.5 3.42 7.7 7.9 18.72 9.95 24.5 2.06 5.78 5.34 16.35 7.3 23.5 1.95 7.15 3.81 14.35 4.11 16 0.34 1.78 0.01 3.81-0.81 5-1.35 1.97-1.65 1.92-18.22-3.18-9.27-2.85-19.55-5.66-22.85-6.25-3.3-0.6-9.6-1.08-14-1.07-4.4 0-12.05 0.49-17 1.09-5.38 0.65-12.02 2.28-16.5 4.06-4.12 1.64-10.2 4.47-13.5 6.31-3.3 1.83-8.36 5.17-11.25 7.43-2.89 2.26-8.59 8.05-12.68 12.86-4.09 4.81-9.25 11.22-11.47 14.25-2.22 3.03-7.18 10-11.02 15.5-3.84 5.5-8.39 12.03-10.1 14.5-1.72 2.47-4.77 6.53-6.77 9-2.01 2.47-6.36 7.37-9.68 10.88-3.32 3.51-9.18 8.88-13.03 11.94-5.25 4.18-9.57 6.52-17.25 9.37-6.67 2.48-12.78 4.02-17.5 4.41-5.05 0.42-9.3 0.12-14-1-3.71-0.88-9.56-2.87-13-4.42-3.44-1.55-8.28-4.26-10.75-6.03-2.47-1.77-7.32-6.02-10.77-9.43-3.45-3.42-7.7-8.92-9.44-12.22-1.74-3.3-4.45-10.72-6.03-16.5-1.72-6.29-3.1-14.31-3.44-20-0.45-7.45-0.1-11.88 1.59-20.5 1.19-6.05 3.11-13.92 4.27-17.5 1.16-3.58 3.79-9.88 5.84-14 2.06-4.13 6.57-11.33 10.03-16 3.46-4.67 10.6-12.81 15.87-18.08 5.27-5.27 12.5-11.73 16.08-14.36 3.58-2.63 11.22-7.16 17-10.06 5.78-2.9 14.33-6.43 19-7.85 4.67-1.42 14.8-4 22.5-5.74 9.29-2.1 17.7-3.32 25-3.62 6.72-0.27 15.47 0.14 22.5 1.06 6.33 0.82 17.35 2.29 24.5 3.26 12.19 1.64 13.17 1.65 15.75 0.07 1.91-1.17 2.76-2.52 2.77-4.43 0.01-1.81-1.1-3.82-3.25-5.89-1.8-1.73-5.52-4.26-8.27-5.63-2.75-1.36-8.37-3.63-12.5-5.05-4.12-1.42-11.78-3.73-17-5.13-6.59-1.78-14.55-2.93-26-3.75-12.53-0.89-19.5-0.9-29-0.03-9.05 0.84-15.4 2.08-23 4.53-5.78 1.85-15.79 5.7-22.25 8.54-7.2 3.16-16.09 8.16-22.96 12.91-6.52 4.5-15.15 11.73-20.62 17.25-5.18 5.22-11.59 12.42-14.24 16-2.66 3.58-7.52 11.9-10.81 18.5-4.43 8.91-6.51 14.57-8.1 22-1.18 5.5-2.6 11.8-3.15 14-0.56 2.2-1.25 10.97-1.53 19.5-0.49 14.52-0.33 16.38 2.48 29.5 1.65 7.7 3.86 16.25 4.91 19 1.04 2.75 4.8 9.71 8.33 15.47 4.46 7.26 9.36 13.43 15.94 20.11 6.07 6.15 12.03 11.09 16.5 13.68 3.85 2.22 9.7 4.95 13 6.05 3.3 1.1 10.95 2.52 17 3.16 6.05 0.63 13.92 0.86 17.5 0.51 3.58-0.35 9.88-1.53 14-2.61 4.13-1.09 9.97-3.37 13-5.07 3.03-1.7 7.97-4.99 11-7.31 3.03-2.32 8.42-7.32 12-11.11 3.58-3.79 9.93-11.17 14.13-16.39 4.19-5.22 11.59-15.57 16.45-22.99 4.85-7.42 11.39-16.65 14.54-20.5 3.14-3.85 8.79-9.97 12.55-13.6 3.75-3.63 9.53-8.47 12.83-10.74 3.3-2.27 8.47-5.07 11.5-6.22 3.18-1.21 9.71-2.45 15.5-2.93 5.85-0.49 14.36-0.44 20.5 0.12 5.78 0.53 13.2 1.64 16.5 2.47 3.3 0.83 10.23 3.4 15.41 5.71 5.17 2.3 11.02 5.6 13 7.33 3.51 3.06 3.6 3.32 3.94 11.5 0.2 4.6-0.18 12.64-0.84 17.86-0.67 5.22-2.69 14.67-4.51 21-1.81 6.33-4.81 15.33-6.66 20-1.84 4.67-6.26 13.45-9.82 19.5-3.56 6.05-9.13 14.37-12.39 18.5-3.26 4.12-9.57 11.01-14.03 15.31-4.45 4.3-12.15 10.87-17.1 14.6-4.95 3.74-13.95 9.64-20 13.12-6.05 3.47-16.4 8.28-23 10.67-6.6 2.4-15.15 5.35-19 6.58-6.68 2.12-8.59 2.22-41.5 2.2-30.65-0.01-35.28-0.22-41.5-1.9-3.85-1.04-12.4-3.89-19-6.33-6.6-2.44-16.72-6.93-22.5-9.98-5.78-3.04-12.75-6.91-15.5-8.6-2.75-1.69-7.7-5.12-11-7.62-3.3-2.5-8.92-7.18-12.5-10.4-3.58-3.21-9.37-9.07-12.88-13-3.52-3.93-8.9-10.53-11.98-14.65-3.07-4.13-7.66-11.1-10.2-15.5-2.53-4.4-7.12-14.3-10.19-22-3.07-7.7-6.29-16.7-7.14-20-0.85-3.3-2.07-10.72-2.71-16.5-0.75-6.78-0.96-19.53-0.59-36 0.44-19.72 1-27.54 2.49-34.5 1.06-4.95 4.51-15.08 7.66-22.5 3.15-7.42 8.02-17.33 10.82-22 2.8-4.67 7.63-11.88 10.74-16 3.11-4.13 10.79-12.72 17.07-19.11 6.27-6.38 14.79-14.08 18.91-17.1 4.13-3.03 10.42-7.3 14-9.49 3.58-2.2 9.2-5.37 12.5-7.04 3.3-1.68 10.72-4.69 16.5-6.7 5.78-2.01 16.13-4.79 23-6.18 8.78-1.77 18.3-2.79 32-3.45 10.72-0.51 20.29-1.15 21.25-1.43 0.96-0.27 1.74-1.29 1.72-2.25-0.01-0.96-1.24-3.33-2.72-5.25-1.48-1.92-5.63-6.58-9.22-10.34-3.59-3.76-13.28-13.03-21.53-20.59-8.25-7.57-19.28-17.33-24.5-21.7-5.22-4.37-13.33-10.9-18-14.5-4.67-3.61-13.22-9.93-19-14.05-5.78-4.12-14.78-10.35-20-13.84-5.22-3.5-16.47-10.58-25-15.74-8.53-5.16-22.47-12.9-31-17.21-8.53-4.3-20.11-9.9-25.75-12.43-5.64-2.53-18.01-7.8-27.5-11.7-9.49-3.91-26.92-10.21-38.75-14-11.83-3.8-28.47-8.68-37-10.85-8.53-2.17-22.25-5.33-30.5-7.04-8.25-1.7-19.5-3.77-25-4.6-5.5-0.83-21.7-2.83-36-4.45-14.3-1.61-36.58-3.45-49.5-4.07-14.54-0.7-73.61-1.18-286.5-1.39l-0.72 253.5c-0.4 139.42-0.96 254.06-1.25 254.75-0.4 0.95-6.58 1.25-26.03 1.25-16 0-25.69-0.37-26-1-0.27-0.55-0.51-234.44-0.52-519.75-0.02-366.66 0.29-519.04 1.04-519.75 0.59-0.55 4.76-1.28 9.28-1.61 4.51-0.34 142.75-0.53 307.2-0.42zm-262.5 54.1c-0.28 0.33-0.36 97.87-0.18 216.76 0.18 118.9 0.52 216.96 0.75 217.92 0.41 1.66 16.99 1.75 330.68 1.75h330.25c30.22-10.2 43.05-15.13 48-17.53 4.95-2.4 13.28-7.17 18.5-10.61 6.16-4.04 13.56-10.31 21.04-17.8 6.57-6.59 14.89-16.29 19.35-22.56 4.29-6.05 10.22-15.95 13.17-22 2.94-6.05 6.97-16.4 8.95-23 1.97-6.6 4.23-15.83 5-20.5 0.78-4.67 1.88-13.67 2.45-20 0.57-6.33 1.02-21.17 1.01-33-0.02-11.83-0.65-26.67-1.4-33-0.75-6.33-2.6-16.67-4.11-23-1.51-6.33-4.3-15.55-6.2-20.5-1.91-4.95-5.58-13.5-8.17-19-2.59-5.5-8.02-15.85-12.07-23-4.05-7.15-8.95-15.25-10.88-18-1.94-2.75-6.01-7.92-9.05-11.5-3.04-3.58-9.36-10.49-14.06-15.36-4.69-4.87-12.36-12.12-17.03-16.09-4.67-3.98-12.33-9.93-17-13.23-4.67-3.3-10.53-7.19-13-8.64-2.47-1.45-4.95-2.65-5.5-2.67-0.55-0.02-1.4 2.56-1.88 5.73-0.48 3.17-1.21 79.78-1.63 170.26-0.41 90.48-1.05 165.63-1.42 167-0.37 1.38-1.55 3.06-2.62 3.75-1.07 0.69-7.24 1.72-13.7 2.29-7.42 0.65-12.12 0.69-12.75 0.09-0.61-0.58-1.5-21.42-2.27-53.29-0.7-28.79-1.48-57.4-1.75-63.59l-0.48-11.25h-255c-0.75 14.34-1.35 43.7-1.81 74.5-0.45 30.8-1.14 56.56-1.51 57.25-0.49 0.9-4.31 1.25-13.68 1.25-12.54 0-13.03-0.08-13.92-2.25-0.51-1.24-1.41-30.83-2.01-65.75-0.6-34.92-1.43-63.84-1.83-64.26-0.41-0.42-53.16-0.84-117.24-0.93-75.47-0.11-117.56 0.19-119.5 0.83-2.57 0.86-3.09 1.63-3.61 5.43-0.34 2.44-0.89 10.28-1.23 17.43-0.34 7.15-1.09 33.02-1.68 57.5-0.58 24.47-1.16 46.3-1.27 48.5l-0.21 4c-20.15-0.49-26.67-0.82-27.5-1.05-1.32-0.37-1.59-21.3-2.26-176.69-0.41-96.94-1.09-186.54-1.5-199.11-0.61-18.74-1.01-23-2.24-23.68-0.83-0.45-7.8-1.04-15.5-1.31-7.7-0.26-23.9-0.08-36 0.41-12.1 0.49-22.22 1.17-22.5 1.5zm111.24 0.66c-0.72 0.72-1.73 6.23-2.34 12.77-0.71 7.66-0.93 45.72-0.65 114 0.23 56.38 0.71 103.17 1.06 104 0.35 0.83 1.66 1.88 2.92 2.34 1.25 0.47 48.85 1.23 105.77 1.7 56.92 0.47 175.72 0.76 264 0.66l160.5-0.2v-211.92c-17.05-6.01-27.62-9.51-34.5-11.67-6.87-2.16-20.83-5.53-31-7.5-13.29-2.57-23.29-3.85-35.5-4.52-9.35-0.52-107-1.1-217-1.29-110-0.19-202.7-0.18-206 0.02-3.3 0.19-6.57 0.92-7.26 1.61zm-4.59 517.6c0.84 0.25 1.24 17.45 1.5 64.72 0.3 55.52 0.56 64.6 1.85 65.97 1.14 1.2 4.87 1.8 15.5 2.48 7.7 0.5 62.15 0.93 228 1.01l0.75-18.26c0.42-10.04 0.76-35.13 0.77-55.75 0-21.63 0.41-38.13 0.95-39 0.77-1.23 2.5-1.38 9.73-0.85 4.84 0.36 10.49 1.37 12.55 2.25 2.06 0.88 4.31 2.61 5 3.85 0.94 1.69 1.38 15.41 2.25 107.25l88 0.7c48.4 0.39 94.08 1.14 101.5 1.67 8.84 0.64 16.78 1.87 23 3.58 5.22 1.44 11.08 3.39 13 4.34 1.92 0.94 3.5 2.36 3.5 3.15 0 1.01-4.27 2.51-14.5 5.1-7.97 2.01-20.58 5.54-41.5 12l-447.5-0.04-0.28 13.75c-0.15 7.56-0.38 32.88-0.51 56.25-0.12 23.37-0.66 76.92-1.19 119-0.53 42.08-1.29 85.28-1.68 96-0.53 14.63-1.06 19.81-2.1 20.75-0.89 0.8-4.68 1.27-10.56 1.29-7.33 0.04-9.65-0.32-11.53-1.75-2.34-1.77-2.36-2.03-3.22-29.79-0.48-15.4-1.18-119.8-1.55-232-0.67-196.01-0.62-204.06 1.11-205.5 1.3-1.08 5.22-1.64 13.91-2 6.66-0.28 12.62-0.35 13.25-0.17zm62.35 639.57c5.15 0.2 7.33 0.81 10.5 2.96 2.2 1.49 5.74 4.83 7.88 7.42 2.13 2.6 7.25 9.89 11.38 16.22 4.13 6.32 11.35 17.8 16.03 25.5 4.69 7.7 10.65 17.6 13.24 22 2.59 4.4 7.83 13.17 11.66 19.5 3.82 6.32 8.1 13.3 9.51 15.5 1.41 2.2 6.82 11.2 12.01 20 5.2 8.8 15.43 26.12 22.72 38.5 7.3 12.37 15.65 26.55 18.56 31.5 2.91 4.95 11.48 19.57 19.05 32.5 7.56 12.93 17.35 29.8 21.76 37.5 5.54 9.69 8.03 15.08 8.2 21l-28 0.24c-15.4 0.14-28.47-0.09-29.04-0.5-0.58-0.41-3.1-4.34-5.61-8.74-2.51-4.4-7.94-13.85-12.06-21-4.12-7.15-8.88-15.25-10.58-18-1.69-2.75-4.91-8.26-11.21-19.5l-70.25-0.27c-38.64-0.14-71.04-0.59-72-1-0.96-0.4-1.76-1.52-1.77-2.48-0.01-0.96 2.96-6.7 6.6-12.75 3.64-6.05 8.89-14.38 11.67-18.5 2.77-4.13 5.24-7.72 5.48-8 0.24-0.28 20.85-0.5 45.8-0.5 34.34 0 45.68-0.3 46.67-1.22 1.06-0.99 0.67-2.39-2.11-7.5-1.88-3.45-6.33-11.23-9.89-17.28-3.56-6.05-7.69-13.03-9.18-15.5-1.49-2.47-5.4-9.22-8.7-15-3.3-5.78-7.94-13.88-10.31-18-2.37-4.13-6.16-10.88-8.43-15-2.26-4.13-6.13-10.74-8.6-14.71-2.46-3.96-5.04-7.23-5.73-7.25-0.69-0.02-5.02 6.37-9.63 14.21-4.61 7.84-12.71 21.79-18 31-5.29 9.21-9.62 17.09-9.62 17.5 0.01 0.41-1.2 2.55-2.69 4.75-1.48 2.2-5.01 8.28-7.85 13.5-2.83 5.22-10.47 18.72-16.97 30-6.51 11.28-12.95 22.53-14.33 25-1.37 2.47-5.35 9.34-8.83 15.25-3.48 5.91-6.33 10.97-6.33 11.25 0 0.28-2.81 5.17-6.25 10.88-3.44 5.72-7.6 12.79-9.25 15.72-1.65 2.94-4.71 8.5-6.81 12.37-2.09 3.87-6.14 10.52-14.19 22.54h-19.5c-10.72 0-22.32-0.34-25.76-0.75-5.36-0.65-6.26-1.05-6.23-2.76 0.02-1.1 2.42-6.5 5.35-12 2.92-5.5 9.5-17.43 14.61-26.5 5.11-9.07 10.98-19.43 13.05-23 2.06-3.58 7.69-13.47 12.5-22 4.82-8.53 11.12-19.55 14.01-24.5 2.89-4.95 7.51-13.05 10.27-18 2.76-4.95 7.04-12.6 9.51-17 2.47-4.4 5.96-10.47 7.74-13.5 1.79-3.03 5.11-8.88 7.39-13 2.27-4.13 6.43-11.33 9.22-16 2.8-4.68 8.36-14.13 12.36-21 4-6.88 9.38-16.1 11.96-20.5 2.57-4.4 7.62-12.95 11.22-19 3.6-6.05 9.12-15.28 12.26-20.5 3.15-5.22 7.37-11.2 9.38-13.27 2.01-2.08 5.24-4.53 7.16-5.45 1.92-0.93 5.53-2.01 8-2.41 2.47-0.39 7.42-0.61 11-0.47zm-460.1 2.12c38.83 0.32 89.73 1.02 113.1 1.54 23.38 0.52 45.54 1.4 49.25 1.95 3.71 0.54 8.89 1.71 11.5 2.6 2.61 0.88 8.13 3.15 12.25 5.05 4.13 1.9 10.76 5.9 14.75 8.9 3.99 2.99 9.01 7.8 11.17 10.69 2.16 2.89 5.58 8.17 7.62 11.75 2.03 3.57 4.82 9.42 6.2 13 2.15 5.56 2.62 8.96 3.31 23.5 0.45 9.35 0.43 26.9-0.02 39-0.74 19.51-1.13 22.91-3.41 30-1.41 4.4-4.17 10.7-6.12 14-1.96 3.3-6.8 9.64-10.78 14.08-3.97 4.45-10.59 11.09-14.72 14.75-4.12 3.66-8.96 7.34-10.75 8.16-1.87 0.87-3.25 2.25-3.24 3.26 0.01 0.96 4.57 6.92 10.14 13.25 5.56 6.32 13.07 14.65 16.68 18.5 3.61 3.85 9.54 10.15 13.16 14 3.63 3.85 12.09 12.96 18.8 20.25 6.72 7.29 12.88 14.6 13.71 16.25 1.18 2.35 1.23 3.15 0.25 3.71-0.69 0.38-15.42 0.9-32.75 1.15-17.81 0.25-32.19 0.05-33.09-0.46-0.88-0.49-7.18-7.12-14-14.73-6.83-7.61-14.61-16.38-17.29-19.5-2.68-3.12-11.68-13.01-20-21.98-8.32-8.98-17.14-18.05-24.12-24.02l-46-0.65c-25.3-0.36-49.6-0.96-62-2.02l-0.5-43.5 10.25 0.48c5.64 0.27 30.73 0.78 55.75 1.14 30.94 0.44 50.14 0.29 60-0.49 7.98-0.64 17.09-1.82 20.25-2.64 3.16-0.82 8.11-3 11-4.85 2.89-1.85 7.03-5.34 9.2-7.75 2.17-2.42 5.63-7.99 7.69-12.39 2.25-4.8 4.22-11 4.93-15.5 0.75-4.71 0.98-13.07 0.64-22.5-0.48-13.28-0.87-15.85-3.38-22.44-1.73-4.55-4.39-9.16-6.83-11.86-2.22-2.45-6.67-5.71-10-7.32-5.25-2.55-7.75-3.04-20-3.91-7.7-0.55-47.97-1.11-165-1.47l-0.79 118c-0.43 64.9-1.1 118.29-1.5 118.65-0.39 0.36-11.28 0.81-47.71 1.35l-0.42-143.39c-0.34-117.37-0.17-143.65 0.9-144.79 1.11-1.17 12.38-1.29 71.92-0.8zm703.58 0.2c11.01 0.26 21.37 0.79 26.02 1.91l0.86 116.93c0.47 64.32 1.07 117.16 1.33 117.44 0.26 0.28 41.5 0.62 91.64 0.76 50.14 0.14 94.43 0.48 105.67 1.24l-0.5 49.5-122.5 0.24c-67.38 0.13-122.79-0.1-123.14-0.5-0.35-0.41-0.94-65.09-1.31-143.74-0.54-116.12-0.42-143.12 0.62-143.62 0.71-0.35 10.3-0.42 21.31-0.16zm302.52-0.53c5.22-0.09 10.01 0.17 10.62 0.58 0.82 0.53 1.29 26.41 1.7 93.23 0.31 50.87 1.03 101.72 1.6 113 0.56 11.28 1.29 22.53 2.19 29.5l21.7 0.75c11.93 0.41 55.44 0.75 96.69 0.76 41.25 0.01 75.56 0.35 76.24 0.76 0.95 0.56 1.19 6.54 0.76 49.73l-123.5 0.24c-67.92 0.13-123.84-0.1-124.25-0.5-0.41-0.41-1.04-61.27-1.4-135.24-0.36-73.97-0.36-137.99 0-142.25 0.51-6.06 1.03-7.9 2.4-8.44 0.96-0.37 7.15-0.97 13.75-1.32 6.6-0.35 16.28-0.71 21.5-0.8zm214.5 0.3c13.26 0.15 23.19 0.69 25 1.37 1.89 0.71 7.05 5.94 14 14.18 6.05 7.18 12.58 15 14.5 17.38 1.93 2.38 6.88 8.33 11 13.22 4.13 4.88 9.3 11.07 11.5 13.74 2.2 2.67 6.7 8.14 10 12.14 3.3 4.01 13.2 16.19 22 27.08 8.8 10.89 18.14 22.18 20.75 25.1 2.61 2.91 5.31 5.31 6 5.31 0.69 0.01 3.1-1.9 5.35-4.25 2.26-2.34 6.76-7.59 10-11.65 3.25-4.07 8.15-10.25 10.9-13.73 2.75-3.48 11.29-14.11 18.99-23.61 7.69-9.5 24.68-30.43 61.51-75.77l15.75-0.25c8.66-0.14 22.46-0.03 30.67 0.25 8.56 0.29 15.08 0.93 15.29 1.5 0.21 0.55-3.2 5.5-7.57 11-4.37 5.5-13.5 16.8-20.29 25.12-6.79 8.31-16.17 19.74-20.85 25.39-4.68 5.66-10.97 13.29-14 16.97-3.03 3.68-9.1 11.11-13.5 16.5-4.4 5.4-10.63 13.01-13.84 16.92-3.21 3.9-8.61 10.5-12 14.66-3.39 4.15-12.44 15.4-20.11 25-7.67 9.59-15.89 19.91-18.27 22.94-2.9 3.68-4.51 6.82-4.86 9.5-0.3 2.2-0.85 26.05-1.92 102l-23.25 0.25c-19.93 0.21-23.32 0.04-23.75-1.25-0.28-0.82-0.81-24.79-1.88-105l-19.7-24.5c-10.84-13.47-25.19-31.25-31.9-39.5-6.7-8.25-13.84-17.03-15.85-19.52-2.02-2.48-12.67-15.44-23.67-28.8-11-13.36-21.8-26.5-24-29.18-2.2-2.69-9.85-12.15-17-21.02-7.15-8.88-13-16.67-13-17.31 0-0.74 2.91-1.4 8-1.79 4.4-0.35 17.9-0.52 30-0.39zm-1245.5 394.14c23.75 0.31 32.85 0.75 33.79 1.65 0.81 0.75 1.28 3.6 1.25 7.47-0.02 4.05-0.48 6.41-1.29 6.71-0.69 0.25-7.1 0.82-27.25 2.04l-0.63 6.5c-0.35 3.57-0.69 21.46-0.75 39.75-0.09 25.47-0.41 33.41-1.37 33.93-0.69 0.37-4.4 0.57-8.25 0.43-3.85-0.13-7.34-0.55-7.77-0.93-0.42-0.37-0.77-16.88-0.77-36.68-0.01-19.8-0.35-37.57-1.54-43l-12.96-0.76c-7.13-0.41-13.97-1.2-15.21-1.75-1.88-0.83-2.25-1.78-2.26-5.74 0-2.61 0.67-5.76 1.5-7 1.13-1.68 2.72-2.35 6.26-2.65 2.61-0.22 19.38-0.21 37.25 0.03zm220-0.63h5c2.75 0 6.24 0.62 7.75 1.39 1.51 0.76 4.56 3.35 6.78 5.75 2.21 2.4 8.31 9.76 13.54 16.36 5.23 6.6 12.2 15.44 15.47 19.65 3.28 4.21 7.99 10.18 10.46 13.28 2.47 3.09 4.78 5.27 5.13 4.85 0.35-0.43 1.13-13.49 1.75-29.03 0.62-15.54 1.34-28.93 1.62-29.75 0.38-1.15 2.21-1.5 7.75-1.52 4.54-0.01 7.72 0.46 8.52 1.25 0.98 0.99 1.26 11.58 1.26 47.77 0 35.17-0.29 46.8-1.21 47.75-0.7 0.72-3.7 1.25-7.02 1.25-4.9 0-6.29-0.43-8.95-2.75-1.74-1.51-4.91-5.22-7.05-8.25-2.14-3.03-6.18-8.43-8.97-12-2.8-3.57-9.42-11.87-14.71-18.44-5.29-6.56-11.49-13.99-13.77-16.5-2.29-2.51-4.42-4.34-4.76-4.06-0.33 0.28-1.04 8.37-1.57 18-0.53 9.62-0.98 23.24-1 30.25-0.02 10.43-0.29 12.84-1.52 13.25-0.83 0.28-4.42 0.5-14.5 0.5zm153.72 0c2.36 0 5.66 0.79 7.35 1.75 1.69 0.96 6.11 5.57 9.81 10.25 3.71 4.68 14.02 17.84 22.93 29.25 8.9 11.41 16.64 20.97 17.19 21.25 0.61 0.31 1.18-3.06 1.48-8.75 0.26-5.09 0.75-18.47 1.08-29.75 0.33-11.28 0.9-21.08 1.27-21.79 0.37-0.7 3.36-1.56 6.67-1.89 5.75-0.59 6.1-0.49 10.57 5.18l-0.02 45.5c-0.01 34.36-0.31 45.81-1.23 46.75-0.69 0.71-3.64 1.25-6.77 1.24-3.58 0-6.5-0.62-8.22-1.75-1.47-0.96-4.84-4.46-7.5-7.77-2.66-3.32-13.27-16.71-23.58-29.75-10.31-13.05-19.2-23.5-19.75-23.22-0.63 0.32-1 11.83-1 31.5 0 19.47-0.37 31.09-0.98 31.25-0.54 0.14-4.47 0.03-16.48-0.75l-0.82-5c-0.45-2.75-0.69-24.27-0.52-47.83 0.29-41.32 0.37-42.88 2.27-44.25 1.09-0.78 3.9-1.42 6.25-1.42zm253.28 0.26c13.34 0.34 13.6 0.39 21.85 4.29 4.6 2.17 8.98 4.74 9.75 5.7 1.23 1.53 1.05 2.4-1.46 7-2.32 4.25-3.41 5.3-5.75 5.53-1.59 0.16-5.81-0.93-9.39-2.43-5.49-2.29-7.9-2.7-15.5-2.66-4.95 0.03-10.01 0.56-11.25 1.18-1.92 0.97-2.25 1.93-2.25 6.63 0 3.03 0.45 6.4 1 7.5 0.55 1.1 3.36 3.07 6.25 4.39 2.89 1.31 9.3 3.48 14.25 4.83 4.95 1.35 11.44 3.76 14.42 5.36 3.27 1.76 6.98 4.91 9.33 7.92 2.15 2.75 4.15 6.12 4.46 7.5 0.31 1.37 0.36 5.43 0.13 9-0.24 3.57-1.31 8.3-2.37 10.5-1.06 2.2-3.85 5.91-6.2 8.25-2.35 2.34-6.18 5.24-8.52 6.46-3.73 1.94-5.73 2.2-16.25 2.13-7.78-0.05-14.29-0.68-18.5-1.77-3.58-0.93-9.61-3.35-13.41-5.38-3.8-2.03-7.34-4.59-7.88-5.69-0.74-1.52-0.49-2.73 1.06-5 1.13-1.65 3.33-4.25 7.73-8.56l8.5 4.01c4.67 2.21 11.42 4.52 15 5.13 4.8 0.81 7.94 0.81 12-0.03 3.03-0.63 6.51-1.8 7.75-2.6 1.24-0.8 2.7-3.02 3.25-4.95 0.73-2.54 0.66-4.25-0.25-6.23-0.69-1.5-3.05-3.71-5.25-4.92-2.2-1.2-8.28-3.32-13.5-4.7-5.22-1.38-12.2-3.53-15.5-4.78-3.3-1.25-7.8-3.65-10-5.34-2.2-1.69-4.77-4.64-5.71-6.55-0.94-1.91-2.01-5.95-2.38-8.98-0.46-3.82-0.16-7.25 0.96-11.25 1.27-4.48 2.92-7.13 7.47-12 3.22-3.44 7.38-7.06 9.25-8.04 2.9-1.53 5.42-1.75 16.91-1.45zm211 0.15c8.06 0.24 11.89 0.86 16.5 2.65 3.3 1.29 7.46 3.6 9.25 5.14 1.88 1.62 3.25 3.75 3.25 5.05-0.01 1.24-0.91 3.71-2 5.5-1.1 1.79-2.9 3.7-4 4.25-1.53 0.76-3.94 0.26-10.25-2.13-6.73-2.54-9.84-3.15-16.85-3.25-6.35-0.09-9.03 0.27-10.29 1.38-1.21 1.06-1.69 3.02-1.65 6.75 0.02 2.89 0.49 6.15 1.04 7.25 0.55 1.1 2.69 2.84 4.75 3.86 2.06 1.03 8.25 3.34 13.75 5.14 5.5 1.8 12.14 4.34 14.75 5.64 2.61 1.3 6.44 3.88 8.5 5.74 2.37 2.15 4.45 5.36 5.65 8.75 1.29 3.66 1.72 6.81 1.35 9.87-0.3 2.47-1.49 6.75-2.64 9.5-1.16 2.75-4.24 7.12-6.86 9.7-2.61 2.59-6.33 5.36-8.25 6.17-1.92 0.8-6.65 1.76-10.5 2.13-3.85 0.37-10.83 0.18-15.5-0.42-4.67-0.6-10.53-1.75-13-2.55-2.47-0.81-7.31-3.29-10.75-5.5-4.6-2.97-6.25-4.62-6.26-6.28-0.01-1.24 1.34-4.39 3-7 1.65-2.61 3.68-4.75 4.51-4.75 0.83 0 5.66 2.02 10.75 4.5 5.09 2.47 11.95 5.02 15.25 5.66 4.68 0.91 6.99 0.89 10.5-0.08 2.47-0.68 5.74-2.11 7.25-3.16 1.51-1.06 3.42-3.27 4.25-4.92 0.83-1.65 1.5-3.9 1.5-5 0-1.1-1.46-3.1-3.25-4.43-1.79-1.34-7.08-3.6-11.75-5.01-4.67-1.42-12.1-3.74-16.5-5.15-4.57-1.47-10.14-4.17-13-6.3-2.98-2.21-5.9-5.52-7.24-8.16-1.53-3.05-2.24-6.26-2.25-10.2 0-3.16 0.54-7.89 1.22-10.5 0.91-3.53 2.51-6 6.25-9.61 2.76-2.67 6.82-5.78 9.02-6.91 2.2-1.13 5.35-2.42 7-2.85 1.65-0.44 7.72-0.65 13.5-0.47zm129.5 0.42c15.4 0.19 28.22 0.57 28.5 0.85 0.28 0.28 0.79 3.28 1.15 6.67 0.35 3.38 0.47 6.71 0.25 7.4-0.29 0.9-4.21 1.32-27.9 1.75l-0.58 39.5c-0.32 21.72-0.89 40.06-1.25 40.75-0.43 0.8-2.99 1.25-7.17 1.25-5.5 0-6.65-0.31-7.5-2-0.56-1.11-1.05-11.19-1.12-22.75-0.07-11.41-0.41-28.63-1.38-55.75l-13.5-0.81c-8.79-0.53-14.29-1.32-15.75-2.25-1.82-1.17-2.25-2.35-2.23-6.19 0-2.61 0.44-5.43 0.96-6.25 0.68-1.09 3.47-1.64 10.23-2 5.11-0.28 21.89-0.35 37.29-0.17zm96-0.32c2.75 0.28 5.45 0.97 6 1.55 0.56 0.59 1.53 14.1 2.21 30.74 0.67 16.34 1.58 31.73 2.02 34.2 0.45 2.47 1.93 6.16 3.29 8.19 1.37 2.04 3.61 4.34 4.98 5.12 1.38 0.78 5.09 1.71 8.25 2.06 3.16 0.34 8.11 0.17 11-0.4 3.92-0.77 6.21-1.97 9.04-4.75 2.08-2.05 4.19-5.29 4.69-7.22 0.5-1.93 1.37-9.57 1.94-17 0.56-7.43 1.29-21.15 1.61-30.5 0.33-9.35 0.79-18.01 1.03-19.25 0.41-2.1 0.89-2.23 13.94-1.75l0.63 6.5c0.35 3.57 0.68 17.97 0.74 32 0.08 19.37-0.26 27-1.38 31.75-0.82 3.44-2.24 7.71-3.15 9.5-0.92 1.79-3.96 5.64-6.75 8.55-3.46 3.61-6.77 5.93-10.34 7.25-2.89 1.07-8.74 2.23-13 2.57-4.4 0.35-10.99 0.11-15.25-0.56-4.12-0.65-9.06-1.94-10.97-2.87-1.91-0.93-5.89-3.94-8.86-6.69-2.96-2.75-6.33-6.57-7.49-8.5-1.15-1.93-2.69-5.97-3.41-9-0.82-3.49-1.52-16.27-1.9-35-0.47-23.18-0.32-30.09 0.71-32.28 0.71-1.52 2.23-3.21 3.36-3.74 1.13-0.53 4.31-0.74 7.06-0.47zm159-0.21c13.91 0.38 21.83 1.05 26 2.19 3.3 0.9 8.68 3.07 11.96 4.82 3.28 1.76 8.23 5.44 11 8.19 2.77 2.75 7.07 8.6 14.04 20.98v14.51c0 13.63-0.15 14.75-2.44 18.51-1.35 2.2-3.95 6.03-5.79 8.5-1.84 2.47-5.92 6.48-9.06 8.9-3.14 2.42-8.41 5.68-11.71 7.25-3.3 1.56-8.7 3.29-12 3.84-3.3 0.55-14.55 0.99-25 0.99-10.45-0.01-19.67-0.44-20.5-0.96-1.3-0.82-1.5-7.22-1.5-94.2l2.5-2.04c2.39-1.94 3.42-2.01 22.5-1.48zm-5.83 23.36c-0.38 2.66-0.68 16.88-0.68 31.59 0.01 14.71 0.35 26.89 0.76 27.07 0.41 0.18 6.38 0 13.25-0.39 6.88-0.39 14.3-1.18 16.5-1.75 2.92-0.76 5.69-2.82 10.25-7.61 3.44-3.61 7.2-8.71 8.36-11.32 1.71-3.82 2.05-6.23 1.75-12.32-0.28-5.97-0.99-8.81-3.36-13.44-1.94-3.79-4.86-7.39-8.25-10.18-2.98-2.45-7.52-5-10.5-5.9-2.89-0.87-9.3-1.77-14.25-2-4.95-0.23-9.93 0-11.08 0.5-1.51 0.67-2.26 2.22-2.75 5.75zm138.83-23.12c2.75 0.34 5.34 0.81 5.75 1.04 0.41 0.23 0.75 22.02 0.75 48.42 0 41.78-0.19 48.06-1.5 48.5-0.82 0.28-3.86 0.49-6.75 0.48-2.89 0-5.83-0.34-6.55-0.75-0.71-0.4-1.7-2.76-2.2-5.23-0.5-2.47-0.89-21.38-0.86-42 0.03-20.63 0.37-39.95 0.74-42.95 0.56-4.38 1.18-5.72 3.16-6.79q2.46-1.34 7.46-0.72zm116-0.44c3.85-0.04 10.15 0.62 14 1.45 3.85 0.83 9.24 2.74 11.98 4.23 2.74 1.5 7.93 5.65 11.52 9.22 3.6 3.57 7.85 8.97 9.45 12 1.59 3.03 3.49 7.75 4.21 10.5 0.73 2.75 1.32 7.7 1.32 11 0 3.3-0.66 8.47-1.46 11.5-0.8 3.03-3.16 8.86-5.24 12.97-2.36 4.67-5.85 9.5-9.28 12.85-3.2 3.12-8.64 6.93-13 9.12-4.6 2.3-10.4 4.24-15 5.03-4.12 0.7-9.75 1.03-12.5 0.72-2.75-0.31-7.93-1.53-11.5-2.72-3.57-1.2-9.2-4.07-12.5-6.4-4.07-2.87-7.62-6.61-11.06-11.65-2.78-4.08-6.09-10.12-7.35-13.42-1.27-3.34-2.52-9.33-2.81-13.5-0.37-5.22-0.03-9.48 1.12-14 0.91-3.57 2.78-8.75 4.16-11.5 1.37-2.75 4.4-7.21 6.72-9.92 2.32-2.71 6.47-6.57 9.22-8.59 2.75-2.02 6.13-4.28 7.5-5.03 1.38-0.75 4.97-1.91 8-2.58 3.03-0.67 8.65-1.24 12.5-1.28zm-19.25 23.51c-2.64 2.1-5.29 5.57-7 9.14-2.46 5.15-2.75 6.85-2.75 16.25 0.01 8.67 0.39 11.37 2.23 15.5 1.27 2.88 4.67 7.39 7.99 10.63 4.12 4.02 6.93 5.88 9.78 6.5 2.2 0.48 7.38 0.84 11.5 0.81 4.28-0.04 9.43-0.77 12-1.7 2.69-0.98 6.21-3.46 8.75-6.19 2.34-2.5 5.11-6.24 6.15-8.3 1.05-2.06 2.48-6.45 3.19-9.75 1.03-4.83 1.03-7.36 0.03-13-0.68-3.85-2.28-8.8-3.54-11-1.27-2.2-4.28-5.7-6.69-7.77-2.41-2.07-6.42-4.46-8.89-5.32-2.47-0.85-7.87-1.75-12-2-5.36-0.32-8.78 0.02-12 1.18-2.47 0.89-6.41 3.15-8.75 5.02zm-1320-22.4c21.43-0.19 23.93-0.04 25.58 1.54 1.08 1.03 2.14 4.02 2.57 7.25 0.4 3.03 0.37 5.8-0.08 6.17-0.45 0.37-12.29 1.05-51.82 2.33l-0.5 22.5 4.25 0.47c2.34 0.26 12.8 0.82 42.25 2.03l0.5 14.5-22.75-0.04c-17.36-0.04-23.04 0.26-23.99 1.25-0.87 0.9-1.17 4.6-0.76 23.29l25.5 0.5c14.03 0.28 26.06 0.84 26.75 1.25 0.69 0.41 1.73 1.99 2.32 3.5 0.58 1.51 0.83 4.1 0.54 5.75-0.38 2.17-1.44 3.42-3.82 4.5-2.72 1.24-8.48 1.47-33.29 1.32-16.5-0.1-31.35-0.58-36-1.96l-0.22-46.43c-0.18-35.53 0.06-46.73 1-47.7 0.75-0.78 4.5-1.37 9.72-1.54 4.67-0.16 19.19-0.37 32.25-0.48zm398.25 1.29v97h-16l-0.26-47.5c-0.14-26.13-0.02-48.08 0.27-48.79 0.38-0.94 2.65-1.21 15.99-0.71z"/>
</svg>